<svg width="54" height="54" viewBox="0 0 54 54" fill="none" xmlns="http://www.w3.org/2000/svg">
<g clip-path="url(#clip0)">
<path d="M54 27C54 27.6502 53.9769 28.2949 53.9317 28.9341C52.9398 42.9432 41.2615 54 27 54C17.9511 54 9.94264 49.5489 5.04404 42.7173C3.60144 40.7061 2.42895 38.4899 1.57918 36.1194C0.556559 33.2706 0 30.2003 0 27C0 12.0883 12.0883 0 27 0C37.5311 0 46.6549 6.02923 51.106 14.8247C52.9574 18.4834 54 22.6205 54 27Z" fill="#73D4FF"/>
<path d="M54 27C54 27.6502 53.9769 28.295 53.9316 28.9341C52.9398 42.9432 41.2615 54 27 54C17.9511 54 9.94263 49.5489 5.04402 42.7173C3.60142 40.7061 2.42892 38.4899 1.57916 36.1194L11.4226 11.8602L18.0348 22.4398L28.7788 4.2561L44.4001 21.5306L51.106 14.8247C52.9574 18.4834 54 22.6205 54 27Z" fill="#249FD3"/>
<path d="M15.5117 36.8656C9.8182 38.4716 3.87968 35.146 2.27371 29.4526C0.667738 23.7592 3.99327 17.8206 9.68669 16.2146C15.3801 14.6086 21.3187 17.9342 22.9247 23.6276C24.5307 29.321 21.2051 35.2597 15.5117 36.8656ZM10.2285 18.1357C5.59418 19.4429 2.88743 24.2766 4.19461 28.9109C5.50179 33.5452 10.3355 36.252 14.9698 34.9448C19.6041 33.6376 22.3109 28.8039 21.0037 24.1696C19.6965 19.5353 14.8628 16.8284 10.2285 18.1357Z" fill="#324A97"/>
<path d="M42.9584 29.1237C37.2649 30.7297 31.3263 27.4042 29.7204 21.7108C28.1144 16.0173 31.4399 10.0787 37.1333 8.47275C42.8267 6.86677 48.7654 10.1923 50.3713 15.8857C51.9773 21.5791 48.6519 27.5178 42.9584 29.1237ZM37.6751 10.3936C33.0408 11.7009 30.3341 16.5346 31.6413 21.1689C32.9484 25.8032 37.7822 28.5099 42.4165 27.2027C47.0508 25.8955 49.7575 21.0618 48.4503 16.4275C47.1432 11.7933 42.3094 9.08657 37.6751 10.3936Z" fill="#324A97"/>
<path d="M12.993 25.5864L16.0889 12.7944L25.0137 22.1956L12.993 25.5864ZM26.1431 21.0298L17.1688 11.5766L29.9502 7.97134L26.1431 21.0298ZM38.6657 1.69637C37.9927 0.542118 36.5907 0.0289073 35.3319 0.478626L32.2746 1.56907L29.9214 2.40786C29.6892 2.49023 29.5076 2.67354 29.4281 2.90609C29.3473 3.13886 29.3771 3.39621 29.5084 3.60409L31.0145 5.99327C30.9822 5.99844 30.95 6.00371 30.9176 6.01278L15.9073 10.2467L14.2056 8.45586L13.0297 9.57172L14.7594 11.3936L11.0912 26.5527C11.0224 26.8326 11.1081 27.1273 11.3164 27.3279C11.5243 27.5271 11.8214 27.6015 12.0986 27.5233L26.6624 23.4153L26.6614 23.4118C26.6799 23.4078 26.6993 23.4037 26.7177 23.3997L26.7465 23.3916C27.0154 23.3158 27.2261 23.1072 27.3047 22.8388L31.8356 7.29634L39.3602 19.2309C39.5557 19.5425 39.9287 19.6746 40.2661 19.5793C40.3394 19.5588 40.4107 19.5269 40.4791 19.4842C40.8575 19.2453 40.9703 18.7442 40.7314 18.3657L31.4204 3.59481L33.1764 2.96864L35.8769 2.00602C36.3992 1.81724 36.9846 2.03197 37.2642 2.51301C37.4375 2.81022 37.4694 3.16671 37.352 3.49018C37.2345 3.81365 36.9815 4.0652 36.658 4.18237L35.5838 4.56965C35.1628 4.72206 34.9439 5.18686 35.0963 5.60799C35.2476 6.02934 35.7145 6.24629 36.1335 6.09579L37.2077 5.70851C37.9851 5.42701 38.5931 4.8213 38.8757 4.04431C39.1576 3.26595 39.0812 2.41124 38.6657 1.69637Z" fill="#E8509A"/>
<path d="M12.5996 28.2035C13.5181 28.2035 14.2626 27.4589 14.2626 26.5405C14.2626 25.622 13.5181 24.8774 12.5996 24.8774C11.6811 24.8774 10.9366 25.622 10.9366 26.5405C10.9366 27.4589 11.6811 28.2035 12.5996 28.2035Z" fill="#324A97"/>
<path d="M40.046 20.4617C40.9644 20.4617 41.709 19.7172 41.709 18.7987C41.709 17.8802 40.9644 17.1357 40.046 17.1357C39.1275 17.1357 38.3829 17.8802 38.3829 18.7987C38.3829 19.7172 39.1275 20.4617 40.046 20.4617Z" fill="#324A97"/>
<path d="M38.8756 4.04421C38.5931 4.8213 37.985 5.4269 37.2076 5.7084L36.1334 6.09568C35.7144 6.24618 35.2475 6.02934 35.0962 5.60789C34.9438 5.18675 35.1625 4.72206 35.5837 4.56955L36.6579 4.18227C36.9813 4.06509 37.2344 3.81355 37.3519 3.49008C37.4694 3.1666 37.4375 2.81012 37.2641 2.51291C36.9845 2.03186 36.3991 1.81724 35.8768 2.00592L33.981 2.68166C33.5456 2.8368 33.0697 2.59106 32.9442 2.14619C32.8312 1.74541 33.045 1.32501 33.4355 1.18052L35.3318 0.478521C36.5906 0.0289077 37.9926 0.542013 38.6656 1.69626C39.0812 2.41124 39.1576 3.26595 38.8756 4.04421Z" fill="#324A97"/>
<path d="M18.3615 6.05264L11.9252 6.81539C11.2522 6.89523 10.8098 7.55747 10.9936 8.20979L11.3742 9.55895C11.5036 10.0175 11.9801 10.2844 12.4387 10.1551L18.8197 8.35524C19.4456 8.17868 19.8098 7.52826 19.6332 6.9024C19.476 6.34469 18.9366 5.9844 18.3615 6.05264Z" fill="#324A97"/>
<path d="M53.9316 28.9341C53.5834 33.858 51.9149 38.416 49.2777 42.2577C47.7867 44.4321 45.9848 46.3761 43.9372 48.028C41.613 49.9026 38.9714 51.4003 36.105 52.4263C33.2607 53.4446 30.1949 54 27 54C22.1873 54 17.6701 52.7414 13.7568 50.5341C10.3129 48.5923 7.33851 45.9154 5.04404 42.7173L15.5112 36.645L26.299 38.804L31.5888 29.8774L53.9316 28.9341Z" fill="#4E62B1"/>
<path d="M49.2777 42.2577C47.7867 44.432 45.9848 46.3761 43.9372 48.028C41.613 49.9026 38.9714 51.4003 36.105 52.4263C33.2607 53.4446 30.1949 54 27 54C22.1873 54 17.6701 52.7414 13.7568 50.5341L18.2002 43.4325L33.242 46.0763L41.342 37.9774L49.2777 42.2577Z" fill="#36539C"/>
</g>
<defs>
<clipPath id="clip0">
<rect width="54" height="54" fill="white"/>
</clipPath>
</defs>
</svg>
