<svg width="54" height="54" viewBox="0 0 54 54" fill="none" xmlns="http://www.w3.org/2000/svg">
<g clip-path="url(#clip0)">
<path d="M27 54C41.9117 54 54 41.9117 54 27C54 12.0883 41.9117 0 27 0C12.0883 0 0 12.0883 0 27C0 41.9117 12.0883 54 27 54Z" fill="#73D4FF"/>
<path d="M9.16007 13.8289C9.03161 13.8289 8.90536 13.8392 8.78228 13.8586C8.2831 12.5008 6.97834 11.5322 5.44736 11.5322C3.9168 11.5322 2.61247 12.5002 2.11297 13.8575C0.961775 14.0361 0.0806885 15.0315 0.0806885 16.2327H11.564C11.5639 14.9051 10.4877 13.8289 9.16007 13.8289Z" fill="#C2EEFF"/>
<path d="M53.9978 27.291C53.9713 29.8654 53.5834 32.3527 52.8848 34.7056C49.5676 45.8626 39.2349 54 27 54C14.7651 54 4.43128 45.8636 1.11524 34.7055C0.416509 32.3526 0.028595 29.8653 0.00222778 27.2921C0.806743 27.6171 1.74457 27.8816 3.27745 27.8816C7.23158 27.8816 7.23158 26.1184 11.1846 26.1184C15.1387 26.1184 15.1387 27.8816 19.0917 27.8816C23.0446 27.8816 23.0446 26.1184 26.9988 26.1184C30.9517 26.1184 30.9517 27.8816 34.9058 27.8816C38.8588 27.8816 38.8588 26.1184 42.8129 26.1184C46.7659 26.1184 46.7659 27.8816 50.72 27.8816C52.2532 27.8816 53.1922 27.6161 53.9978 27.291Z" fill="#079ACC"/>
<path d="M26.7415 15.6419V11.656H35.6548L37.2108 14.6389" fill="#EDEDED"/>
<path d="M23.5448 8.80872H18.749V16.7489H23.5448V8.80872Z" fill="#EDEDED"/>
<path d="M23.5448 10.4297H18.749V11.8624H23.5448V10.4297Z" fill="#E8509A"/>
<path d="M15.8637 8.80872H11.0678V16.7489H15.8637V8.80872Z" fill="#EDEDED"/>
<path d="M15.8637 10.4297H11.0678V11.8624H15.8637V10.4297Z" fill="#E8509A"/>
<path d="M12.6009 8.80872H11.0678V16.7489H12.6009V8.80872Z" fill="#D1D1D1"/>
<path d="M12.6009 10.4297H11.0678V11.8624H12.6009V10.4297Z" fill="#DC2D8D"/>
<path d="M20.2821 8.80872H18.749V16.7489H20.2821V8.80872Z" fill="#D1D1D1"/>
<path d="M20.2821 10.4297H18.749V11.8624H20.2821V10.4297Z" fill="#DC2D8D"/>
<path d="M6.79376 18.9481V14.6389H39.3288L40.8848 17.6218" fill="#D1D1D1"/>
<path d="M5.56232 21.8868V17.6218H42.5618L44.1179 20.6048" fill="#EDEDED"/>
<path d="M50.2847 27.7743L44.7738 20.6048H4.24585V23.86" fill="#D1D1D1"/>
<path d="M53.6258 25.7579L48.952 35.8868L24.9958 36.5888L3.93368 37.207L2.07785 27.8386L2.97813 23.859H40.5049L43.5906 25.7579H53.6258Z" fill="#EDEDED"/>
<path d="M40.5741 19.3153C40.5741 18.9803 40.8452 18.7092 41.1802 18.7092C41.5142 18.7092 41.7864 18.9802 41.7864 19.3153C41.7864 19.6503 41.5142 19.9214 41.1802 19.9214C40.8453 19.9214 40.5741 19.6504 40.5741 19.3153ZM38.37 19.3153C38.37 18.9803 38.6411 18.7092 38.9762 18.7092C39.3111 18.7092 39.5823 18.9802 39.5823 19.3153C39.5823 19.6503 39.3112 19.9214 38.9762 19.9214C38.6412 19.9214 38.37 19.6504 38.37 19.3153ZM36.1659 19.3153C36.1659 18.9803 36.437 18.7092 36.7721 18.7092C37.106 18.7092 37.3782 18.9802 37.3782 19.3153C37.3782 19.6503 37.106 19.9214 36.7721 19.9214C36.4371 19.9214 36.1659 19.6504 36.1659 19.3153ZM33.9619 19.3153C33.9619 18.9803 34.2329 18.7092 34.568 18.7092C34.9031 18.7092 35.1741 18.9802 35.1741 19.3153C35.1741 19.6503 34.9031 19.9214 34.568 19.9214C34.233 19.9214 33.9619 19.6504 33.9619 19.3153ZM31.7578 19.3153C31.7578 18.9803 32.0288 18.7092 32.3639 18.7092C32.6978 18.7092 32.97 18.9802 32.97 19.3153C32.97 19.6503 32.6978 19.9214 32.3639 19.9214C32.0289 19.9214 31.7578 19.6504 31.7578 19.3153ZM29.5537 19.3153C29.5537 18.9803 29.8247 18.7092 30.1598 18.7092C30.4948 18.7092 30.7659 18.9802 30.7659 19.3153C30.7659 19.6503 30.4949 19.9214 30.1598 19.9214C29.8248 19.9214 29.5537 19.6504 29.5537 19.3153ZM27.3496 19.3153C27.3496 18.9803 27.6207 18.7092 27.9557 18.7092C28.2896 18.7092 28.5619 18.9802 28.5619 19.3153C28.5619 19.6503 28.2896 19.9214 27.9557 19.9214C27.6208 19.9214 27.3496 19.6504 27.3496 19.3153ZM25.1455 19.3153C25.1455 18.9803 25.4166 18.7092 25.7516 18.7092C26.0856 18.7092 26.3578 18.9802 26.3578 19.3153C26.3578 19.6503 26.0856 19.9214 25.7516 19.9214C25.4167 19.9214 25.1455 19.6504 25.1455 19.3153ZM22.9415 19.3153C22.9415 18.9803 23.2126 18.7092 23.5477 18.7092C23.8816 18.7092 24.1538 18.9802 24.1538 19.3153C24.1538 19.6503 23.8816 19.9214 23.5477 19.9214C23.2126 19.9214 22.9415 19.6504 22.9415 19.3153ZM20.7375 19.3153C20.7375 18.9803 21.0085 18.7092 21.3436 18.7092C21.6775 18.7092 21.9497 18.9802 21.9497 19.3153C21.9497 19.6503 21.6775 19.9214 21.3436 19.9214C21.0085 19.9214 20.7375 19.6504 20.7375 19.3153ZM18.5334 19.3153C18.5334 18.9803 18.8044 18.7092 19.1395 18.7092C19.4734 18.7092 19.7456 18.9802 19.7456 19.3153C19.7456 19.6503 19.4734 19.9214 19.1395 19.9214C18.8044 19.9214 18.5334 19.6504 18.5334 19.3153ZM16.3293 19.3153C16.3293 18.9803 16.6003 18.7092 16.9354 18.7092C17.2693 18.7092 17.5415 18.9802 17.5415 19.3153C17.5415 19.6503 17.2693 19.9214 16.9354 19.9214C16.6003 19.9214 16.3293 19.6504 16.3293 19.3153ZM14.1252 19.3153C14.1252 18.9803 14.3963 18.7092 14.7313 18.7092C15.0652 18.7092 15.3375 18.9802 15.3375 19.3153C15.3375 19.6503 15.0652 19.9214 14.7313 19.9214C14.3963 19.9214 14.1252 19.6504 14.1252 19.3153ZM11.9211 19.3153C11.9211 18.9803 12.1922 18.7092 12.5272 18.7092C12.8612 18.7092 13.1334 18.9802 13.1334 19.3153C13.1334 19.6503 12.8612 19.9214 12.5272 19.9214C12.1922 19.9214 11.9211 19.6504 11.9211 19.3153ZM9.71703 19.3153C9.71703 18.9803 9.98808 18.7092 10.3232 18.7092C10.6581 18.7092 10.9293 18.9802 10.9293 19.3153C10.9293 19.6503 10.6582 19.9214 10.3232 19.9214C9.98808 19.9214 9.71703 19.6504 9.71703 19.3153ZM7.51294 19.3153C7.51294 18.9803 7.78399 18.7092 8.11907 18.7092C8.45298 18.7092 8.7252 18.9802 8.7252 19.3153C8.7252 19.6503 8.45298 19.9214 8.11907 19.9214C7.78399 19.9214 7.51294 19.6504 7.51294 19.3153Z" fill="#36539C"/>
<path d="M42.4255 22.1807C42.4255 21.8457 42.6966 21.5746 43.0317 21.5746C43.3666 21.5746 43.6378 21.8456 43.6378 22.1807C43.6378 22.5157 43.3667 22.7868 43.0317 22.7868C42.6967 22.7867 42.4255 22.5157 42.4255 22.1807ZM40.2215 22.1807C40.2215 21.8457 40.4926 21.5746 40.8277 21.5746C41.1628 21.5746 41.4338 21.8456 41.4338 22.1807C41.4338 22.5157 41.1628 22.7868 40.8277 22.7868C40.4926 22.7867 40.2215 22.5157 40.2215 22.1807ZM38.0175 22.1807C38.0175 21.8457 38.2885 21.5746 38.6236 21.5746C38.9587 21.5746 39.2297 21.8456 39.2297 22.1807C39.2297 22.5157 38.9587 22.7868 38.6236 22.7868C38.2885 22.7867 38.0175 22.5157 38.0175 22.1807ZM35.8134 22.1807C35.8134 21.8457 36.0844 21.5746 36.4195 21.5746C36.7545 21.5746 37.0256 21.8456 37.0256 22.1807C37.0256 22.5157 36.7546 22.7868 36.4195 22.7868C36.0844 22.7867 35.8134 22.5157 35.8134 22.1807ZM33.6093 22.1807C33.6093 21.8457 33.8803 21.5746 34.2154 21.5746C34.5505 21.5746 34.8216 21.8456 34.8216 22.1807C34.8216 22.5157 34.5505 22.7868 34.2154 22.7868C33.8803 22.7867 33.6093 22.5157 33.6093 22.1807ZM31.4052 22.1807C31.4052 21.8457 31.6763 21.5746 32.0113 21.5746C32.3464 21.5746 32.6175 21.8456 32.6175 22.1807C32.6175 22.5157 32.3464 22.7868 32.0113 22.7868C31.6763 22.7867 31.4052 22.5157 31.4052 22.1807ZM29.2011 22.1807C29.2011 21.8457 29.4722 21.5746 29.8072 21.5746C30.1422 21.5746 30.4134 21.8456 30.4134 22.1807C30.4134 22.5157 30.1423 22.7868 29.8072 22.7868C29.4722 22.7867 29.2011 22.5157 29.2011 22.1807ZM26.997 22.1807C26.997 21.8457 27.2681 21.5746 27.6032 21.5746C27.9381 21.5746 28.2093 21.8456 28.2093 22.1807C28.2093 22.5157 27.9382 22.7868 27.6032 22.7868C27.2681 22.7867 26.997 22.5157 26.997 22.1807ZM24.7929 22.1807C24.7929 21.8457 25.064 21.5746 25.3991 21.5746C25.734 21.5746 26.0052 21.8456 26.0052 22.1807C26.0052 22.5157 25.7342 22.7868 25.3991 22.7868C25.064 22.7867 24.7929 22.5157 24.7929 22.1807ZM22.5889 22.1807C22.5889 21.8457 22.8599 21.5746 23.195 21.5746C23.53 21.5746 23.8011 21.8456 23.8011 22.1807C23.8011 22.5157 23.5301 22.7868 23.195 22.7868C22.8599 22.7867 22.5889 22.5157 22.5889 22.1807ZM20.3848 22.1807C20.3848 21.8457 20.6558 21.5746 20.9909 21.5746C21.3259 21.5746 21.597 21.8456 21.597 22.1807C21.597 22.5157 21.326 22.7868 20.9909 22.7868C20.6558 22.7867 20.3848 22.5157 20.3848 22.1807ZM18.1807 22.1807C18.1807 21.8457 18.4517 21.5746 18.7868 21.5746C19.1218 21.5746 19.3929 21.8456 19.3929 22.1807C19.3929 22.5157 19.1219 22.7868 18.7868 22.7868C18.4517 22.7867 18.1807 22.5157 18.1807 22.1807ZM15.9766 22.1807C15.9766 21.8457 16.2477 21.5746 16.5827 21.5746C16.9177 21.5746 17.1889 21.8456 17.1889 22.1807C17.1889 22.5157 16.9178 22.7868 16.5827 22.7868C16.2477 22.7867 15.9766 22.5157 15.9766 22.1807ZM13.7725 22.1807C13.7725 21.8457 14.0436 21.5746 14.3786 21.5746C14.7136 21.5746 14.9848 21.8456 14.9848 22.1807C14.9848 22.5157 14.7137 22.7868 14.3786 22.7868C14.0436 22.7867 13.7725 22.5157 13.7725 22.1807ZM11.5684 22.1807C11.5684 21.8457 11.8395 21.5746 12.1746 21.5746C12.5095 21.5746 12.7807 21.8456 12.7807 22.1807C12.7807 22.5157 12.5096 22.7868 12.1746 22.7868C11.8396 22.7867 11.5684 22.5157 11.5684 22.1807ZM9.36435 22.1807C9.36435 21.8457 9.6354 21.5746 9.97048 21.5746C10.3054 21.5746 10.5766 21.8456 10.5766 22.1807C10.5766 22.5157 10.3056 22.7868 9.97048 22.7868C9.63551 22.7867 9.36435 22.5157 9.36435 22.1807ZM7.16026 22.1807C7.16026 21.8457 7.43132 21.5746 7.76639 21.5746C8.10136 21.5746 8.37252 21.8456 8.37252 22.1807C8.37252 22.5157 8.10147 22.7868 7.76639 22.7868C7.43142 22.7867 7.16026 22.5157 7.16026 22.1807ZM4.95618 22.1807C4.95618 21.8457 5.22723 21.5746 5.56231 21.5746C5.89727 21.5746 6.16843 21.8456 6.16843 22.1807C6.16843 22.5157 5.89738 22.7868 5.56231 22.7868C5.22734 22.7867 4.95618 22.5157 4.95618 22.1807Z" fill="#36539C"/>
<path d="M38.37 16.1436C38.37 15.8087 38.6411 15.5375 38.9762 15.5375C39.3111 15.5375 39.5823 15.8086 39.5823 16.1436C39.5823 16.4775 39.3112 16.7498 38.9762 16.7498C38.6412 16.7498 38.37 16.4775 38.37 16.1436ZM36.1659 16.1436C36.1659 15.8087 36.437 15.5375 36.7721 15.5375C37.106 15.5375 37.3782 15.8086 37.3782 16.1436C37.3782 16.4775 37.106 16.7498 36.7721 16.7498C36.4371 16.7498 36.1659 16.4775 36.1659 16.1436ZM33.9619 16.1436C33.9619 15.8087 34.2329 15.5375 34.568 15.5375C34.9019 15.5375 35.1741 15.8086 35.1741 16.1436C35.1741 16.4775 34.9019 16.7498 34.568 16.7498C34.233 16.7498 33.9619 16.4775 33.9619 16.1436ZM31.7578 16.1436C31.7578 15.8087 32.0288 15.5375 32.3639 15.5375C32.6978 15.5375 32.97 15.8086 32.97 16.1436C32.97 16.4775 32.6978 16.7498 32.3639 16.7498C32.0289 16.7498 31.7578 16.4775 31.7578 16.1436ZM29.5537 16.1436C29.5537 15.8087 29.8247 15.5375 30.1598 15.5375C30.4937 15.5375 30.7659 15.8086 30.7659 16.1436C30.7659 16.4775 30.4937 16.7498 30.1598 16.7498C29.8248 16.7498 29.5537 16.4775 29.5537 16.1436ZM27.3496 16.1436C27.3496 15.8087 27.6207 15.5375 27.9557 15.5375C28.2908 15.5375 28.5619 15.8086 28.5619 16.1436C28.5619 16.4775 28.2908 16.7498 27.9557 16.7498C27.6208 16.7498 27.3496 16.4775 27.3496 16.1436ZM25.1455 16.1436C25.1455 15.8087 25.4166 15.5375 25.7516 15.5375C26.0866 15.5375 26.3578 15.8086 26.3578 16.1436C26.3578 16.4775 26.0867 16.7498 25.7516 16.7498C25.4167 16.7498 25.1455 16.4775 25.1455 16.1436ZM22.9415 16.1436C22.9415 15.8087 23.2126 15.5375 23.5477 15.5375C23.8816 15.5375 24.1538 15.8086 24.1538 16.1436C24.1538 16.4775 23.8816 16.7498 23.5477 16.7498C23.2126 16.7498 22.9415 16.4775 22.9415 16.1436ZM20.7375 16.1436C20.7375 15.8087 21.0085 15.5375 21.3436 15.5375C21.6775 15.5375 21.9497 15.8086 21.9497 16.1436C21.9497 16.4775 21.6775 16.7498 21.3436 16.7498C21.0085 16.7498 20.7375 16.4775 20.7375 16.1436ZM18.5334 16.1436C18.5334 15.8087 18.8044 15.5375 19.1395 15.5375C19.4734 15.5375 19.7456 15.8086 19.7456 16.1436C19.7456 16.4775 19.4734 16.7498 19.1395 16.7498C18.8044 16.7498 18.5334 16.4775 18.5334 16.1436ZM16.3293 16.1436C16.3293 15.8087 16.6003 15.5375 16.9354 15.5375C17.2693 15.5375 17.5415 15.8086 17.5415 16.1436C17.5415 16.4775 17.2693 16.7498 16.9354 16.7498C16.6003 16.7498 16.3293 16.4775 16.3293 16.1436ZM14.1252 16.1436C14.1252 15.8087 14.3963 15.5375 14.7313 15.5375C15.0652 15.5375 15.3375 15.8086 15.3375 16.1436C15.3375 16.4775 15.0652 16.7498 14.7313 16.7498C14.3963 16.7498 14.1252 16.4775 14.1252 16.1436ZM11.9211 16.1436C11.9211 15.8087 12.1922 15.5375 12.5272 15.5375C12.8622 15.5375 13.1334 15.8086 13.1334 16.1436C13.1334 16.4775 12.8623 16.7498 12.5272 16.7498C12.1922 16.7498 11.9211 16.4775 11.9211 16.1436ZM9.71703 16.1436C9.71703 15.8087 9.98808 15.5375 10.3232 15.5375C10.6571 15.5375 10.9293 15.8086 10.9293 16.1436C10.9293 16.4775 10.6571 16.7498 10.3232 16.7498C9.98808 16.7498 9.71703 16.4775 9.71703 16.1436ZM7.51294 16.1436C7.51294 15.8087 7.78399 15.5375 8.11907 15.5375C8.45298 15.5375 8.7252 15.8086 8.7252 16.1436C8.7252 16.4775 8.45298 16.7498 8.11907 16.7498C7.78399 16.7498 7.51294 16.4775 7.51294 16.1436Z" fill="#36539C"/>
<path d="M34.1085 13.2177C34.1085 12.8828 34.3795 12.6116 34.7146 12.6116C35.0497 12.6116 35.3207 12.8827 35.3207 13.2177C35.3207 13.5517 35.0497 13.8239 34.7146 13.8239C34.3796 13.8239 34.1085 13.5517 34.1085 13.2177ZM31.9044 13.2177C31.9044 12.8828 32.1754 12.6116 32.5105 12.6116C32.8455 12.6116 33.1166 12.8827 33.1166 13.2177C33.1166 13.5517 32.8456 13.8239 32.5105 13.8239C32.1755 13.8239 31.9044 13.5517 31.9044 13.2177ZM29.7003 13.2177C29.7003 12.8828 29.9714 12.6116 30.3064 12.6116C30.6415 12.6116 30.9126 12.8827 30.9126 13.2177C30.9126 13.5517 30.6415 13.8239 30.3064 13.8239C29.9715 13.8239 29.7003 13.5517 29.7003 13.2177ZM27.4962 13.2177C27.4962 12.8828 27.7673 12.6116 28.1023 12.6116C28.4373 12.6116 28.7085 12.8827 28.7085 13.2177C28.7085 13.5517 28.4374 13.8239 28.1023 13.8239C27.7674 13.8239 27.4962 13.5517 27.4962 13.2177Z" fill="#36539C"/>
<path d="M24.9958 36.5888L3.93356 37.2071L2.07773 27.8386L2.97812 23.8592H5.84117C5.84128 23.8591 7.74668 33.4249 24.9958 36.5888Z" fill="#D1D1D1"/>
<path d="M48.9681 29.3804C49.455 29.3804 49.8497 28.9857 49.8497 28.4988C49.8497 28.0119 49.455 27.6172 48.9681 27.6172C48.4812 27.6172 48.0865 28.0119 48.0865 28.4988C48.0865 28.9857 48.4812 29.3804 48.9681 29.3804Z" fill="#36539C"/>
<path d="M31.8127 26.5154H38.6453C38.9903 26.5154 39.2698 26.2358 39.2698 25.8909C39.2698 25.5459 38.9902 25.2664 38.6453 25.2664H31.8127C31.4677 25.2664 31.1882 25.546 31.1882 25.8909C31.1882 26.2358 31.4678 26.5154 31.8127 26.5154Z" fill="#D1D1D1"/>
<path d="M52.8848 34.7054C52.0671 37.455 50.8229 40.0217 49.2293 42.3283C44.3583 49.3791 36.2197 54 27 54C17.7803 54 9.64069 49.3803 4.76962 42.3283C3.17609 40.0229 1.93188 37.4562 1.11523 34.7054C1.69489 34.8454 2.38592 34.9346 3.27745 34.9346C7.23158 34.9346 7.23158 33.1714 11.1845 33.1714C15.1387 33.1714 15.1387 34.9346 19.0916 34.9346C23.0446 34.9346 23.0446 33.1714 26.9987 33.1714C30.9517 33.1714 30.9517 34.9346 34.9058 34.9346C38.8588 34.9346 38.8588 33.1714 42.8129 33.1714C46.7659 33.1714 46.7659 34.9346 50.72 34.9346C51.6129 34.9347 52.304 34.8443 52.8848 34.7054Z" fill="#73D4FF"/>
<path d="M49.2292 42.3283C47.6655 44.593 45.7644 46.6064 43.5978 48.297C39.02 51.8709 33.2585 54 27 54C20.7404 54 14.979 51.8709 10.4 48.2958C8.23448 46.6053 6.33341 44.5929 4.76962 42.3283C7.31427 41.9547 7.80354 40.6653 11.1847 40.6653C15.1388 40.6653 15.1388 42.4285 19.0918 42.4285C23.0447 42.4285 23.0447 40.6653 26.9988 40.6653C30.9518 40.6653 30.9518 42.4285 34.9059 42.4285C38.8589 42.4285 38.8589 40.6653 42.813 40.6653C46.1943 40.6653 46.6835 41.9558 49.2292 42.3283Z" fill="#079ACC"/>
<path d="M43.5978 48.297C39.02 51.8709 33.2585 54 27 54C20.7404 54 14.979 51.8709 10.4 48.2958C10.6435 48.2792 10.9036 48.2705 11.1847 48.2705C15.1388 48.2705 15.1388 50.0337 19.0917 50.0337C23.0447 50.0337 23.0447 48.2705 26.9988 48.2705C30.9518 48.2705 30.9518 50.0337 34.9059 50.0337C38.8589 50.0337 38.8589 48.2705 42.813 48.2705C43.0942 48.2705 43.3543 48.2792 43.5978 48.297Z" fill="#73D4FF"/>
<path d="M13.1146 7.85417C12.6278 7.85417 12.233 7.4594 12.233 6.97255C12.233 6.4257 11.788 5.98073 11.2412 5.98073H0.00222778V5.09911V4.2175H11.2412C12.7604 4.2175 13.9962 5.45349 13.9962 6.97255C13.9962 7.4595 13.6016 7.85417 13.1146 7.85417Z" fill="#36539C"/>
<path d="M21.0494 7.85417C20.5625 7.85417 20.1678 7.4594 20.1678 6.97255C20.1678 6.4257 19.7228 5.98073 19.1759 5.98073H8.37594C7.88909 5.98073 7.49432 5.58596 7.49432 5.09911C7.49432 4.61227 7.88909 4.2175 8.37594 4.2175H19.1759C20.6951 4.2175 21.931 5.45349 21.931 6.97255C21.931 7.4595 21.5363 7.85417 21.0494 7.85417Z" fill="#36539C"/>
<path d="M47.53 17.995C47.5859 17.995 47.6407 17.9995 47.6942 18.0078C47.9112 17.4178 48.4782 16.9968 49.1436 16.9968C49.8088 16.9968 50.3757 17.4175 50.5927 18.0074C51.0931 18.0852 51.476 18.5177 51.476 19.0398H46.4851C46.4851 18.4628 46.953 17.995 47.53 17.995Z" fill="#C2EEFF"/>
<path d="M37.9667 5.16366C38.1245 5.16366 38.2793 5.17631 38.4305 5.20025C39.0435 3.53322 40.6452 2.34406 42.5249 2.34406C44.4041 2.34406 46.0055 3.53258 46.6188 5.19888C48.0322 5.41815 49.1139 6.64022 49.1139 8.11509H35.0152C35.0152 6.48497 36.3367 5.16366 37.9667 5.16366Z" fill="#C2EEFF"/>
</g>
<defs>
<clipPath id="clip0">
<rect width="54" height="54" fill="white"/>
</clipPath>
</defs>
</svg>
