<svg width="54" height="54" viewBox="0 0 54 54" fill="none" xmlns="http://www.w3.org/2000/svg">
<path d="M54 27C54 30.6136 53.2903 34.0608 52.002 37.2115C47.9751 47.0605 38.2981 54 27 54C15.7019 54 6.0249 47.0605 1.998 37.2115C0.709699 34.0608 0 30.6136 0 27C0 19.4786 3.07473 12.6757 8.03714 7.78043C9.22852 6.60561 10.5278 5.53996 11.9197 4.60097C16.2253 1.69604 21.4149 0 27 0C29.938 0 32.7659 0.469441 35.4141 1.33682C36.3046 1.62886 37.174 1.96499 38.0215 2.3452C47.4385 6.56047 54 16.0137 54 27Z" fill="#73D4FF"/>
<path d="M54 27C54 27.0771 54 27.1554 53.9989 27.2326C53.9615 31.7091 52.834 35.9266 50.8692 39.6305H3.12979C2.18647 37.8507 1.43596 35.9519 0.906926 33.9627C0.409957 32.0958 0.107895 30.1497 0.0241523 28.1473C0.0109688 27.8443 0.00316406 27.539 0.00105469 27.2326C0 27.1554 0 27.0783 0 27C0 21.8998 1.41391 17.129 3.8726 13.0603L10.1432 21.2827L27.0044 3.099L46.0135 19.6296L51.3694 15.3626C53.0555 18.8868 54 22.8332 54 27Z" fill="#249FD3"/>
<path d="M52.002 37.2115C51.1744 39.236 50.1076 41.1369 48.837 42.8804C48.5758 43.2408 48.3047 43.5946 48.0248 43.9406C47.5707 44.5049 47.0936 45.0493 46.5932 45.575C46.2968 45.8901 45.9904 46.1976 45.6775 46.4974C40.8273 51.1447 34.247 54 27 54C23.1417 54 19.472 53.1911 16.1526 51.732C11.3984 49.6436 7.36161 46.2251 4.5129 41.9481C3.5255 40.4658 2.68017 38.8812 1.998 37.2115C2.7 36.8159 3.42183 36.4367 4.16349 36.0753C10.6049 32.9267 18.4867 31.0764 27 31.0764C27.8409 31.0764 28.6751 31.094 29.5016 31.1304C30.6886 31.1811 31.8611 31.2681 33.016 31.3894C34.2172 31.5162 35.4009 31.6792 36.5646 31.8787C37.087 31.9679 37.606 32.0638 38.1207 32.1685C39.1566 32.3756 40.1749 32.6126 41.1734 32.8771C45.1319 33.923 48.7808 35.3953 52.002 37.2115Z" fill="#EDEDED"/>
<path d="M16.2373 19.0212H14.844C10.9856 19.0212 7.84656 15.8821 7.84656 12.0237V9.42141C7.84656 5.56305 10.9855 2.42398 14.844 2.42398H16.4252C18.1974 2.42398 19.6391 3.86574 19.6391 5.63793C19.6391 5.89886 19.4276 6.11054 19.1665 6.11054C18.9056 6.11054 18.6939 5.89897 18.6939 5.63793C18.6939 4.38686 17.676 3.36909 16.4251 3.36909H14.8439C11.5066 3.36909 8.79166 6.08406 8.79166 9.42131V12.0236C8.79166 15.3609 11.5066 18.076 14.8439 18.076H16.2372C16.4982 18.076 16.7098 18.2875 16.7098 18.5486C16.7099 18.8095 16.4985 19.0212 16.2373 19.0212Z" fill="#FCE45B"/>
<path d="M30.2433 37.4143C30.2433 41.5756 29.2822 45.7358 27.3637 49.55C26.6926 50.8834 25.3348 51.732 23.8427 51.732H16.1526C14.7519 51.117 13.413 50.3864 12.1489 49.55C9.62191 47.8837 7.39146 45.803 5.55546 43.4049C5.1918 42.9311 4.8446 42.4451 4.5129 41.948C4.18226 40.0062 4.0655 38.0369 4.16359 36.0752C4.38623 31.5568 5.74499 27.0825 8.23668 23.0964H26.136C27.7109 25.6168 28.8338 28.3322 29.5016 31.1303C29.9965 33.1946 30.2433 35.3049 30.2433 37.4143Z" fill="#E8509A"/>
<path d="M27.2306 37.7405H7.14118C7.12462 37.4039 7.11639 37.0659 7.11639 36.7281C7.11639 32.8955 8.17024 29.0629 10.2827 25.685H24.0903C26.3883 29.3604 27.4326 33.5747 27.2306 37.7405Z" fill="#73D4FF"/>
<path d="M21.7462 20.6613H12.6265C11.8545 20.6613 11.2287 21.2872 11.2287 22.0591V23.0963H23.1441V22.0591C23.144 21.2872 22.5181 20.6613 21.7462 20.6613Z" fill="#36539C"/>
<path d="M17.9555 17.4482H16.4169C15.9915 17.4482 15.6465 17.793 15.6465 18.2186V20.6614H18.7257V18.2186C18.7259 17.7931 18.3811 17.4482 17.9555 17.4482Z" fill="#36539C"/>
<path d="M27.2306 37.7405H17.4636L19.4886 25.6849H24.0904C26.3883 29.3604 27.4326 33.5747 27.2306 37.7405Z" fill="#C2EEFF"/>
<path d="M10.249 23.0966C5.07273 29.1743 4.90303 37.6932 5.55546 43.405C5.1918 42.9312 4.8446 42.4452 4.5129 41.9481C4.18226 40.0063 4.0655 38.037 4.16359 36.0753C4.38623 31.5569 5.74499 27.0826 8.23668 23.0965L10.249 23.0966Z" fill="#DC2D8D"/>
<path d="M27.3637 49.55C26.6926 50.8834 25.3347 51.732 23.8427 51.732H16.1526C14.7519 51.117 13.413 50.3865 12.1489 49.55H27.3637Z" fill="#DC2D8D"/>
<path d="M40.8716 10.4754H40.0015C37.5917 10.4754 35.6315 8.51493 35.6315 6.10528V4.48001C35.6315 2.07026 37.5919 0.110016 40.0015 0.110016H40.989C42.0957 0.110016 42.9962 1.01051 42.9962 2.1173C42.9962 2.28025 42.8641 2.4124 42.7011 2.4124C42.5382 2.4124 42.406 2.28025 42.406 2.1173C42.406 1.33598 41.7704 0.700324 40.9891 0.700324H40.0016C37.9174 0.700324 36.2218 2.39595 36.2218 4.48011V6.10539C36.2218 8.18956 37.9174 9.88518 40.0016 9.88518H40.8717C41.0346 9.88518 41.1668 10.0173 41.1668 10.1803C41.1668 10.3432 41.0346 10.4754 40.8716 10.4754Z" fill="#FCE45B"/>
<path d="M37.7285 30.9039C36.5248 30.9039 35.4186 30.2177 34.9071 29.1279C32.4929 23.9857 32.8154 17.9142 35.8747 13.0202H47.0537C50.1129 17.9143 50.4355 23.9857 48.0213 29.1279C47.5098 30.2175 46.4036 30.9039 45.1999 30.9039H37.7285Z" fill="#E8509A"/>
<path d="M46.6598 30.0223H39.1885C37.9848 30.0223 36.8786 29.3359 36.3671 28.2463C34.0959 23.4086 34.2476 17.7486 36.8208 13.0202H35.8748C32.8155 17.9142 32.493 23.9856 34.9072 29.1279C35.4187 30.2175 36.5249 30.9039 37.7286 30.9039H45.1999C46.0816 30.9039 46.9099 30.5346 47.4915 29.9095C47.2239 29.9827 46.9449 30.0223 46.6598 30.0223Z" fill="#DC2D8D"/>
<path d="M47.7372 22.1662H35.1907C35.1804 21.9559 35.1752 21.7448 35.1752 21.5338C35.1752 19.1402 35.8333 16.7465 37.1527 14.637H45.7761C47.2111 16.9325 47.8634 19.5645 47.7372 22.1662Z" fill="#73D4FF"/>
<path d="M43.7871 11.4997H39.1411C38.3692 11.4997 37.7434 12.1255 37.7434 12.8975V13.0203H45.1849V12.8975C45.1849 12.1254 44.5592 11.4997 43.7871 11.4997Z" fill="#36539C"/>
<path d="M41.6554 9.49304H41.2729C40.8475 9.49304 40.5025 9.83782 40.5025 10.2634V11.4998H42.4255V10.2632C42.4258 9.83782 42.0809 9.49304 41.6554 9.49304Z" fill="#36539C"/>
<path d="M47.7372 22.1662H41.6373L42.9019 14.6371H45.7759C47.2111 16.9325 47.8634 19.5644 47.7372 22.1662Z" fill="#C2EEFF"/>
<path d="M25.5398 12.8686C25.8897 12.8686 26.1734 12.5849 26.1734 12.2349C26.1734 11.885 25.8897 11.6013 25.5398 11.6013C25.1898 11.6013 24.9061 11.885 24.9061 12.2349C24.9061 12.5849 25.1898 12.8686 25.5398 12.8686Z" fill="#EDEDED"/>
<path d="M45.101 10.1409C45.4509 10.1409 45.7346 9.85724 45.7346 9.50728C45.7346 9.15732 45.4509 8.87363 45.101 8.87363C44.751 8.87363 44.4673 9.15732 44.4673 9.50728C44.4673 9.85724 44.751 10.1409 45.101 10.1409Z" fill="#EDEDED"/>
<path d="M32.8409 6.83478C33.1908 6.83478 33.4745 6.55109 33.4745 6.20113C33.4745 5.85117 33.1908 5.56747 32.8409 5.56747C32.4909 5.56747 32.2072 5.85117 32.2072 6.20113C32.2072 6.55109 32.4909 6.83478 32.8409 6.83478Z" fill="#EDEDED"/>
<path d="M15.9146 10.4914C16.2645 10.4914 16.5482 10.2077 16.5482 9.85778C16.5482 9.50782 16.2645 9.22412 15.9146 9.22412C15.5646 9.22412 15.2809 9.50782 15.2809 9.85778C15.2809 10.2077 15.5646 10.4914 15.9146 10.4914Z" fill="#EDEDED"/>
<path d="M21.297 18.8471C21.6469 18.8471 21.9306 18.5634 21.9306 18.2134C21.9306 17.8634 21.6469 17.5797 21.297 17.5797C20.947 17.5797 20.6633 17.8634 20.6633 18.2134C20.6633 18.5634 20.947 18.8471 21.297 18.8471Z" fill="#EDEDED"/>
<path d="M23.9749 3.85932C24.3249 3.85932 24.6086 3.57563 24.6086 3.22567C24.6086 2.87571 24.3249 2.59201 23.9749 2.59201C23.625 2.59201 23.3413 2.87571 23.3413 3.22567C23.3413 3.57563 23.625 3.85932 23.9749 3.85932Z" fill="#EDEDED"/>
<path d="M29.5347 20.39C29.8847 20.39 30.1684 20.1063 30.1684 19.7563C30.1684 19.4064 29.8847 19.1227 29.5347 19.1227C29.1848 19.1227 28.9011 19.4064 28.9011 19.7563C28.9011 20.1063 29.1848 20.39 29.5347 20.39Z" fill="#EDEDED"/>
<path d="M51.6857 27.1124C52.0357 27.1124 52.3194 26.8287 52.3194 26.4788C52.3194 26.1288 52.0357 25.8451 51.6857 25.8451C51.3357 25.8451 51.052 26.1288 51.052 26.4788C51.052 26.8287 51.3357 27.1124 51.6857 27.1124Z" fill="#EDEDED"/>
<path d="M37.249 23.3302C37.599 23.3302 37.8827 23.0465 37.8827 22.6966C37.8827 22.3466 37.599 22.0629 37.249 22.0629C36.8991 22.0629 36.6154 22.3466 36.6154 22.6966C36.6154 23.0465 36.8991 23.3302 37.249 23.3302Z" fill="#EDEDED"/>
<path d="M31.3255 28.2145C31.6754 28.2145 31.9591 27.9308 31.9591 27.5808C31.9591 27.2309 31.6754 26.9472 31.3255 26.9472C30.9755 26.9472 30.6918 27.2309 30.6918 27.5808C30.6918 27.9308 30.9755 28.2145 31.3255 28.2145Z" fill="#EDEDED"/>
<path d="M15.5388 46.4257C15.8888 46.4257 16.1725 46.142 16.1725 45.792C16.1725 45.4421 15.8888 45.1584 15.5388 45.1584C15.1889 45.1584 14.9052 45.4421 14.9052 45.792C14.9052 46.142 15.1889 46.4257 15.5388 46.4257Z" fill="#EDEDED"/>
<path d="M26.201 40.8052C26.5509 40.8052 26.8346 40.5215 26.8346 40.1716C26.8346 39.8216 26.5509 39.5379 26.201 39.5379C25.851 39.5379 25.5673 39.8216 25.5673 40.1716C25.5673 40.5215 25.851 40.8052 26.201 40.8052Z" fill="#EDEDED"/>
<path d="M14.029 26.4479C14.379 26.4479 14.6627 26.1642 14.6627 25.8142C14.6627 25.4643 14.379 25.1806 14.029 25.1806C13.6791 25.1806 13.3954 25.4643 13.3954 25.8142C13.3954 26.1642 13.6791 26.4479 14.029 26.4479Z" fill="#EDEDED"/>
<path d="M45.685 31.6307C46.035 31.6307 46.3187 31.347 46.3187 30.9971C46.3187 30.6471 46.035 30.3634 45.685 30.3634C45.3351 30.3634 45.0514 30.6471 45.0514 30.9971C45.0514 31.347 45.3351 31.6307 45.685 31.6307Z" fill="#EDEDED"/>
<path d="M46.6163 16.5604C46.9663 16.5604 47.25 16.2767 47.25 15.9267C47.25 15.5768 46.9663 15.2931 46.6163 15.2931C46.2664 15.2931 45.9827 15.5768 45.9827 15.9267C45.9827 16.2767 46.2664 16.5604 46.6163 16.5604Z" fill="#EDEDED"/>
<path d="M10.4693 40.7777C10.8193 40.7777 11.103 40.494 11.103 40.1441C11.103 39.7941 10.8193 39.5104 10.4693 39.5104C10.1194 39.5104 9.83569 39.7941 9.83569 40.1441C9.83569 40.494 10.1194 40.7777 10.4693 40.7777Z" fill="#EDEDED"/>
<path d="M4.15336 22.8905C4.50331 22.8905 4.78701 22.6068 4.78701 22.2569C4.78701 21.9069 4.50331 21.6232 4.15336 21.6232C3.8034 21.6232 3.5197 21.9069 3.5197 22.2569C3.5197 22.6068 3.8034 22.8905 4.15336 22.8905Z" fill="#EDEDED"/>
<path d="M38.0215 2.34509L8.03714 7.78042C9.22851 6.60561 10.5278 5.53995 11.9197 4.60096L35.4141 1.3367C36.3046 1.62885 37.174 1.96498 38.0215 2.34509Z" fill="#36539C"/>
<path d="M46.5931 45.5749C46.2967 45.89 45.9903 46.1976 45.6773 46.4973C44.5257 46.235 43.2914 45.9397 42.0571 45.6234C33.286 43.3742 31.9415 41.9834 31.7498 41.0235C31.32 38.8767 33.2828 38.0149 35.014 37.2545C36.0213 36.8126 37.0628 36.3541 37.7405 35.6764C38.0061 35.4118 38.0811 35.1507 37.984 34.8289C37.6479 33.707 35.457 32.249 33.016 31.3895C34.2172 31.5162 35.4009 31.6793 36.5646 31.8787C37.6028 32.5344 38.7236 33.4557 39.0398 34.5126C39.2547 35.2289 39.075 35.9012 38.5208 36.4566C37.6964 37.2798 36.558 37.7801 35.4571 38.2639C33.6167 39.0717 32.5863 39.5886 32.8299 40.8074C32.8762 41.0377 33.5507 42.3028 42.3272 44.5544C43.7973 44.9312 45.2663 45.2773 46.5931 45.5749Z" fill="#D1D1D1"/>
<path d="M48.837 42.8804C48.5758 43.2408 48.3047 43.5945 48.0248 43.9406C47.7735 43.9262 47.52 43.9108 47.2677 43.8954C36.8534 43.2485 35.2334 42.0804 35.0218 41.0235C34.5921 38.8767 36.5548 38.0149 38.2861 37.2545C39.2933 36.8126 40.3348 36.3541 41.0136 35.6764C41.2781 35.4118 41.353 35.1507 41.2561 34.8289C41.0081 33.9991 39.7474 32.9874 38.1208 32.1686C39.1567 32.3757 40.175 32.6127 41.1735 32.8772C41.7333 33.3941 42.1411 33.9451 42.3119 34.5126C42.5269 35.229 42.3472 35.9012 41.7929 36.4566C40.9686 37.2798 39.8302 37.7801 38.7293 38.2639C36.8889 39.0717 35.8584 39.5886 36.1021 40.8074C36.1043 40.8129 36.2971 41.4091 39.5712 41.9855C41.4932 42.3238 44.1282 42.5971 47.4023 42.7988C47.8814 42.8286 48.3609 42.8561 48.837 42.8804Z" fill="#D1D1D1"/>
</svg>
