<svg width="54" height="54" viewBox="0 0 54 54" fill="none" xmlns="http://www.w3.org/2000/svg">
<path d="M53.9492 27C53.9492 34.7038 50.7189 41.6544 45.5397 46.5681C40.703 51.1593 34.1686 53.9746 26.9746 53.9746C19.7806 53.9746 13.2451 51.1583 8.40945 46.5681C5.20109 43.5239 2.74145 39.6979 1.33334 35.3952C0.467965 32.7527 0 29.9309 0 27C0 25.7118 0.0902813 24.4434 0.265359 23.2038C2.11064 10.103 13.3651 0.0254211 26.9746 0.0254211C41.8723 0.0254211 53.9492 12.1023 53.9492 27Z" fill="#73D4FF"/>
<path d="M45.5397 46.5681C40.703 51.1593 34.1686 53.9746 26.9746 53.9746C19.7806 53.9746 13.2451 51.1582 8.40944 46.5681C14.0873 45.0994 20.3685 44.2836 26.9746 44.2836C33.5806 44.2836 39.8618 45.0994 45.5397 46.5681Z" fill="#00A9A4"/>
<path d="M36.5356 22.017C36.5356 22.017 35.0305 17.9338 29.4986 16.1767C23.9666 14.4196 7.32669 18.6887 13.2904 22.0288C19.007 25.2304 36.5356 22.017 36.5356 22.017Z" fill="#F2C629"/>
<path d="M7.33493 29.649C5.65481 31.8686 3.62675 33.8108 1.33334 35.3952C0.467965 32.7527 0 29.9308 0 27C0 25.7118 0.0902813 24.4434 0.265359 23.2037C3.00027 24.9004 5.39821 27.0913 7.33493 29.649Z" fill="#F2C629"/>
<path d="M44.0621 31.6429C39.2981 36.7846 32.4872 40.004 24.9245 40.004C16.427 40.004 8.87951 35.9401 4.11665 29.6501C8.87961 23.36 16.427 19.2952 24.9245 19.2952C32.4872 19.2952 39.2981 22.5145 44.0621 27.6573C43.4939 28.1329 43.1318 28.8497 43.1318 29.6501C43.1318 30.4505 43.494 31.1662 44.0621 31.6429Z" fill="#FCE45B"/>
<path d="M44.0621 31.6429C39.2969 36.7847 32.4884 40.004 24.9245 40.004C16.427 40.004 8.87951 35.9402 4.11665 29.6501C8.87961 33.0962 16.427 35.3224 24.9245 35.3224C32.2143 35.3224 38.8037 33.6842 43.537 31.0428C43.6801 31.2697 43.8574 31.4723 44.0621 31.6429Z" fill="#F2C629"/>
<path d="M34.6221 33.3315C36.6554 33.3315 38.3036 31.6833 38.3036 29.65C38.3036 27.6168 36.6554 25.9685 34.6221 25.9685C32.5889 25.9685 30.9406 27.6168 30.9406 29.65C30.9406 31.6833 32.5889 33.3315 34.6221 33.3315Z" fill="white"/>
<path d="M34.6221 31.345C35.5582 31.345 36.3171 30.5861 36.3171 29.65C36.3171 28.7139 35.5582 27.955 34.6221 27.955C33.686 27.955 32.9271 28.7139 32.9271 29.65C32.9271 30.5861 33.686 31.345 34.6221 31.345Z" fill="#5E7EA7"/>
<path d="M29.1082 39.2152C29.1082 39.2152 22.8605 44.5519 17.3937 42.5994L22.3399 39.0849L29.1082 39.2152Z" fill="#F2C629"/>
<path d="M39.1681 18.9372C40.369 18.9372 41.3426 17.9637 41.3426 16.7628C41.3426 15.5619 40.369 14.5883 39.1681 14.5883C37.9672 14.5883 36.9937 15.5619 36.9937 16.7628C36.9937 17.9637 37.9672 18.9372 39.1681 18.9372Z" fill="#C2EEFF"/>
<path d="M7.81713 20.3135C9.01804 20.3135 9.99158 19.34 9.99158 18.139C9.99158 16.9381 9.01804 15.9646 7.81713 15.9646C6.61621 15.9646 5.64268 16.9381 5.64268 18.139C5.64268 19.34 6.61621 20.3135 7.81713 20.3135Z" fill="#C2EEFF"/>
<path d="M35.2178 12.2624C35.8791 12.2624 36.4152 11.7263 36.4152 11.065C36.4152 10.4037 35.8791 9.86765 35.2178 9.86765C34.5565 9.86765 34.0204 10.4037 34.0204 11.065C34.0204 11.7263 34.5565 12.2624 35.2178 12.2624Z" fill="#C2EEFF"/>
<path d="M35.1759 43.3416C35.8372 43.3416 36.3733 42.8055 36.3733 42.1442C36.3733 41.4829 35.8372 40.9468 35.1759 40.9468C34.5146 40.9468 33.9785 41.4829 33.9785 42.1442C33.9785 42.8055 34.5146 43.3416 35.1759 43.3416Z" fill="#C2EEFF"/>
<path d="M12.9445 15.0148C13.9443 15.0148 14.7549 14.2042 14.7549 13.2044C14.7549 12.2045 13.9443 11.394 12.9445 11.394C11.9447 11.394 11.1341 12.2045 11.1341 13.2044C11.1341 14.2042 11.9447 15.0148 12.9445 15.0148Z" fill="#C2EEFF"/>
<path d="M9.94317 43.1531C10.943 43.1531 11.7535 42.3426 11.7535 41.3427C11.7535 40.3429 10.943 39.5323 9.94317 39.5323C8.94333 39.5323 8.1328 40.3429 8.1328 41.3427C8.1328 42.3426 8.94333 43.1531 9.94317 43.1531Z" fill="#C2EEFF"/>
<path d="M39.7594 7.55759C40.4207 7.55759 40.9568 7.0215 40.9568 6.3602C40.9568 5.6989 40.4207 5.16281 39.7594 5.16281C39.0981 5.16281 38.562 5.6989 38.562 6.3602C38.562 7.0215 39.0981 7.55759 39.7594 7.55759Z" fill="#C2EEFF"/>
<path d="M24.0062 30.0834C24.0062 30.0834 20.7034 32.3954 17.7308 32.3954C17.7308 32.3954 21.5249 33.9425 27.4742 32.3954" fill="#F2C629"/>
<path d="M54 15.8116C54 14.2915 52.7635 13.0548 51.2435 13.0548C49.7235 13.0548 48.4867 14.2914 48.4867 15.8116C48.4867 17.0678 49.3319 18.1299 50.4831 18.4608V24.9183C50.4831 26.0565 49.5572 26.9825 48.419 26.9825C47.2808 26.9825 46.3548 26.0565 46.3548 24.9183V23.8002V22.854V18.5889L42.8291 23.8003H44.7032V24.9184C44.7032 26.9672 46.3702 28.6341 48.419 28.6341C50.4678 28.6341 52.1347 26.9672 52.1347 24.9184V18.4197C53.2184 18.0481 54 17.0197 54 15.8116ZM51.2435 17.247C50.4519 17.247 49.8079 16.603 49.8079 15.8114C49.8079 15.0199 50.4519 14.3759 51.2435 14.3759C52.0349 14.3759 52.6788 15.0199 52.6788 15.8114C52.6788 16.603 52.0348 17.247 51.2435 17.247Z" fill="#D1D1D1"/>
<path d="M47.1231 39.9117C46.7692 39.9117 46.4355 39.6969 46.3008 39.3469C45.1422 36.3344 44.6143 34.128 47.7112 31.0312C48.7107 30.0317 49.0835 28.8547 48.8192 27.5329C48.5786 26.3305 47.8617 25.2708 47.2708 24.68C46.9269 24.3361 46.9269 23.7783 47.2708 23.4344C47.6148 23.0905 48.1724 23.0905 48.5165 23.4344C49.5178 24.4357 50.2766 25.8388 50.5465 27.1875C50.9281 29.0956 50.3785 30.8554 48.9569 32.277C46.5398 34.6941 46.9 35.9974 47.945 38.7148C48.1197 39.1689 47.8932 39.6784 47.4391 39.8531C47.3352 39.8927 47.2282 39.9117 47.1231 39.9117Z" fill="#E8509A"/>
<path d="M51.3558 16.2167C50.9301 16.2167 50.5851 15.8716 50.5851 15.446V0.0254211H52.1266V15.446C52.1266 15.8716 51.7815 16.2167 51.3558 16.2167Z" fill="#36539C"/>
</svg>
